<svg xmlns="http://www.w3.org/2000/svg" viewBox="0 0 533.5 544.3" width="24" height="24">
  <path fill="#4285F4" d="M533.5 278.4c0-17.4-1.5-34-4.3-50.2H272v95h146.9c-6.3 33.9-25.3 62.7-54.2 82v68h87.4c51.1-47 80.4-116.5 80.4-194.8z"/>
  <path fill="#34A853" d="M272 544.3c73.2 0 134.6-24.2 179.5-65.8l-87.4-68c-24.3 16.3-55.5 25.9-92.1 25.9-70.8 0-130.8-47.7-152.4-111.7H29.9v70.2c44.7 88.8 136.7 150.4 242.1 150.4z"/>
  <path fill="#FBBC05" d="M119.6 321.9c-10.9-32.7-10.9-67.8 0-100.5V151.2H29.9c-44.7 88.8-44.7 192.9 0 281.7l89.7-70z"/>
  <path fill="#EA4335" d="M272 107.5c39.8 0 75.6 13.7 103.9 40.6l77.8-77.8C406.3 24.2 344.9 0 272 0 166.6 0 74.6 61.6 29.9 150.4l89.7 70c21.6-64 81.6-111.7 152.4-111.7z"/>
</svg>